<svg xmlns="http://www.w3.org/2000/svg" width="240" height="240" viewBox="0 0 240 240">
  <defs>
    <style>
      .s { fill: none; stroke: #94a3b8; stroke-width: 3; stroke-linecap: round; stroke-linejoin: round; }
    </style>
  </defs>

  <!-- subtle kitchen-ish pattern (original, simple line icons) -->
  <g opacity="0.35">
    <!-- spoon -->
    <path class="s" d="M46 40c0 10 8 18 18 18s18-8 18-18S74 22 64 22 46 30 46 40Z"/>
    <path class="s" d="M64 58v40"/>

    <!-- whisk -->
    <path class="s" d="M168 26c-10 10-10 26 0 36s26 10 36 0"/>
    <path class="s" d="M168 26c6 16 22 30 36 36"/>
    <path class="s" d="M172 62l-30 30"/>

    <!-- pot -->
    <rect class="s" x="34" y="148" width="78" height="44" rx="10"/>
    <path class="s" d="M42 148v-10h62v10"/>
    <path class="s" d="M112 162h12"/>
    <path class="s" d="M22 162h12"/>

    <!-- fork -->
    <path class="s" d="M166 152v44"/>
    <path class="s" d="M154 152v16"/>
    <path class="s" d="M160 152v16"/>
    <path class="s" d="M172 152v16"/>
    <path class="s" d="M178 152v16"/>

    <!-- small plate -->
    <circle class="s" cx="194" cy="182" r="18"/>
    <circle class="s" cx="194" cy="182" r="8"/>

    <!-- sprinkles -->
    <path class="s" d="M120 118l10 10"/>
    <path class="s" d="M128 98l10 10"/>
    <path class="s" d="M142 112l10 10"/>
    <path class="s" d="M104 104l10 10"/>
  </g>
</svg>
